<svg xmlns="http://www.w3.org/2000/svg" xmlns:xlink="http://www.w3.org/1999/xlink" width="400" height="100" viewBox="0 0 2000 500">
  <defs>
    <style>
      .cls-1 {
        fill: #5f7b2f;
      }

      .cls-1, .cls-10, .cls-11, .cls-12, .cls-13, .cls-14, .cls-15, .cls-16, .cls-17, .cls-18, .cls-19, .cls-2, .cls-20, .cls-21, .cls-22, .cls-23, .cls-25, .cls-26, .cls-27, .cls-28, .cls-29, .cls-3, .cls-30, .cls-31, .cls-32, .cls-33, .cls-34, .cls-35, .cls-38, .cls-4, .cls-5, .cls-6, .cls-7, .cls-8, .cls-9 {
        fill-rule: evenodd;
      }

      .cls-2 {
        fill: #463129;
      }

      .cls-3 {
        fill: #31211f;
      }

      .cls-4 {
        fill: url(#linear-gradient);
      }

      .cls-5 {
        fill: url(#linear-gradient-2);
      }

      .cls-6 {
        fill: #b8da78;
      }

      .cls-7 {
        fill: #86bb43;
      }

      .cls-8 {
        fill: #86bf42;
      }

      .cls-9 {
        fill: #628a34;
      }

      .cls-10 {
        fill: #fbf4a2;
      }

      .cls-11 {
        fill: url(#linear-gradient-3);
      }

      .cls-12 {
        fill: #cc8416;
      }

      .cls-13, .cls-36 {
        fill: #fdf9be;
      }

      .cls-14, .cls-37 {
        fill: #fdb529;
      }

      .cls-15 {
        fill: #ffd454;
      }

      .cls-16 {
        fill: #85bb44;
      }

      .cls-17 {
        fill: #608636;
      }

      .cls-18 {
        fill: #62892f;
      }

      .cls-19 {
        fill: #1e2714;
      }

      .cls-20 {
        fill: #faf1b0;
      }

      .cls-21 {
        fill: #faf2b6;
      }

      .cls-22 {
        fill: #b4d979;
      }

      .cls-23 {
        fill: #fcef76;
      }

      .cls-24 {
        fill: #fefefc;
      }

      .cls-25 {
        fill: #b8dd78;
      }

      .cls-26 {
        fill: #4c6b2b;
      }

      .cls-27 {
        fill: #658c36;
      }

      .cls-28 {
        fill: #84bb43;
      }

      .cls-29 {
        fill: #bfe27f;
      }

      .cls-30 {
        fill: #b9d978;
      }

      .cls-31 {
        fill: #5a7a31;
      }

      .cls-32 {
        fill: #526e2e;
      }

      .cls-33 {
        fill: #aad464;
      }

      .cls-34 {
        fill: #b0dd6f;
      }

      .cls-35 {
        fill: url(#linear-gradient-4);
      }

      .cls-38 {
        fill: #fff;
      }
    </style>
    <linearGradient id="linear-gradient" x1="329.719" y1="304.656" x2="329.719" y2="151.594" gradientUnits="userSpaceOnUse">
      <stop offset="0" stop-color="#ca3c11"/>
      <stop offset="0.778" stop-color="#a02228"/>
      <stop offset="1" stop-color="#a02228"/>
    </linearGradient>
    <linearGradient id="linear-gradient-2" x1="422.484" y1="304.531" x2="422.484" y2="151.594" gradientUnits="userSpaceOnUse">
      <stop offset="-0.82" stop-color="#ca3c11"/>
      <stop offset="1.233" stop-color="#a02228"/>
      <stop offset="1.82" stop-color="#a02228"/>
    </linearGradient>
    <linearGradient id="linear-gradient-3" x1="376.625" y1="287.438" x2="376.625" y2="171.594" gradientUnits="userSpaceOnUse">
      <stop offset="0" stop-color="#fcb31e"/>
      <stop offset="1" stop-color="#fdc72a"/>
    </linearGradient>
    <linearGradient id="linear-gradient-4" x1="1387.53" y1="273.188" x2="1387.53" y2="170.531" xlink:href="#linear-gradient-3"/>
  </defs>
  <path class="cls-1" d="M347.788,155.865H406.9a17.984,17.984,0,0,1,17.984,17.984v9.2A17.984,17.984,0,0,1,406.9,201.036H347.788A17.984,17.984,0,0,1,329.8,183.052v-9.2A17.984,17.984,0,0,1,347.788,155.865Z"/>
  <path id="Shape_4_copy" data-name="Shape 4 copy" class="cls-2" d="M268.586,194.99s23.98-36.727,67.374-45.883c0,0,7.387,43.213,39.561,44.1v86.43s-26.938,2.279-37.167,8.536c0,0-1.871-4.518,3.762-9.248,0,0-10.906,4.092-15.048,10.671,0,0-.979-8.277,2.052-12.449,0,0-9.66,13.076-19.836,13.871,0,0,21.135-37.807,10.26-60.109a17.634,17.634,0,0,0-11.286,12.8S307.709,218.539,268.586,194.99Zm214.434,0s-23.319-36.727-66.757-45.883c0,0-8.767,43.213-40.973,44.1v86.43s28.337,2.279,38.576,8.536c0,0,1.874-4.518-3.766-9.248,0,0,10.917,4.092,15.064,10.671,0,0,.979-8.277-2.054-12.449,0,0,9.669,13.076,19.856,13.871,0,0-21.157-37.807-10.271-60.109a17.644,17.644,0,0,1,11.3,12.8S443.858,218.539,483.02,194.99Z"/>
  <path id="Shape_4_copy_3" data-name="Shape 4 copy 3" class="cls-3" d="M375.29,193.211c32.206-.891,40.973-44.1,40.973-44.1a102.064,102.064,0,0,1,37.71,16.728s-27.2,14.417-41.405,46.227l-3.42,1.778-63.27,9.6c-15.3-44.156-48.519-57.088-48.519-57.088a103.924,103.924,0,0,1,38.6-17.249s7.387,43.213,39.561,44.1"/>
  <path class="cls-4" d="M313.73,156.577c0.008,0,7.518-3.828,11.628-4.98-0.513.091,6.653,24.1,12.964,56.681,6.08,32.717,11.655,69.592,2.81,96.379,0.185-.1,1.424-7.326-2.439-9.083a16.723,16.723,0,0,1-2.665,5.662c0.026-.01,1.366-3.876.207-5.385,0.02,0.02-3.033,6.744-2.25,4.058a4.8,4.8,0,0,0-.293-4.053c0.032-.028-0.442,3.778-3.707,8.551-0.121.22,5-21.019,2.45-50.456C330.8,224.6,321.506,187.044,313.73,156.577Z"/>
  <path id="Shape_4_copy_2" data-name="Shape 4 copy 2" class="cls-5" d="M438.56,156.573c-0.009,0-7.551-3.825-11.679-4.976,0.516,0.09-6.682,24.086-13.02,56.636-6.107,32.691-11.706,69.536-2.822,96.3-0.185-.1-1.43-7.321,2.45-9.076a16.639,16.639,0,0,0,2.676,5.657c-0.026-.01-1.372-3.873-0.208-5.38-0.02.019,3.047,6.739,2.26,4.055a4.775,4.775,0,0,1,.294-4.05c-0.032-.029.444,3.775,3.723,8.544,0.121,0.22-5.02-21-2.461-50.416C421.412,224.539,430.75,187.016,438.56,156.573Z"/>
  <path class="cls-6" d="M447.794,67.3s28.277-19.165,51.642-20.629,24.373,1.634,24.282,4.268-10.6,7.469-10.6,7.469L460.79,101.8l-10.26,1.068Z"/>
  <path class="cls-7" d="M449.162,77.972s24.454-19.519,41.724-24.9S514.6,48.061,521.324,48.1h0.684a3.946,3.946,0,0,1,2.052,2.845l-68.742,44.1-6.84-14.583"/>
  <path id="Shape_6_copy" data-name="Shape 6 copy" class="cls-6" d="M304.5,67.316s-28.277-19.158-51.642-20.621-24.373,1.633-24.282,4.267,10.6,7.466,10.6,7.466L291.5,101.8l10.26,1.067Z"/>
  <path id="Shape_7_copy" data-name="Shape 7 copy" class="cls-7" d="M303.128,77.982S278.674,58.47,261.4,53.094s-23.712-5.012-30.438-4.978h-0.684a3.946,3.946,0,0,0-2.052,2.844l68.742,44.087,6.84-14.577"/>
  <path class="cls-8" d="M374.093,13.239c45.8,0,77.805,36.885,77.805,85.9,0,25.127-9.57,36.323-23.94,48.55-13.659,11.622-27.949,18.439-53.865,24.9-26.731-6.209-40.962-17.826-55.575-29.521-6.331-5.067-7.295-12.811-12.6-19.133-5.166-6.156-9.76-10.8-9.76-21.948C296.157,52.97,328.289,13.239,374.093,13.239Z"/>
  <path id="Color_Fill_7" data-name="Color Fill 7" class="cls-9" d="M402,102c0.225,11.438-2.915,13.934-6,21h1c8.9-2.317,19.326-3.425,25-9-1.923-1.392-.6-0.1-2-2,6.922-.36,10.433-0.1,13,4q0.5,3,1,6h-1l-3-5-2,1c-4.722,13.612-15.351,15.992-25,22l-4-5-4,6c-5.56-3.884-15.63-4.959-19,2-4.108-4.957-19-3-19-3l-4-5c-11.543,7.81-26.4-5.654-30-18l-6,4v-1l2-6,13-2-3,4,28,7-4-4c-1.7-5.584-3.014-9.708-3-18-17.764,3.009-47.5-.769-41-22l3-6c20.1-5.833,43.272,8.522,55,1q0.5-3.5,1-7h1c0.091,8.917,2.48,9.783,12,9q1-4.5,2-9h1c0.364,6.1,1.649,7.443,4,11,24.67-1.049,29.727-12.883,55-3V74c-4.844-11.818-12.1-13.931-20-22V51c4.337-1.643,3.981-.823,5-6-4.817-10.072-11.421-15.884-19-23,29.643,6.824,41.057,38.677,47,70h1c10.039-28.425,36.074-32.533,67-41v4L498,79c-17.343,23.408-12.465,44.4-49,45-5.429,17.527-57.14,60.245-81,54l-16-12c-23.965-12.706-37.314-17.2-49-42-8.324,1.135-16.189.958-22-3l-1-2c-12.164-10.494-16.259-28.034-26-41-6.569-8.743-18.621-13.18-24-23l-1-2V52c38.794-.241,48.112,21.316,68,39q0.5-3,1-6c-0.895,45.48,29.145,56.594,56,75,5,3.425,6.308,8.368,14,10,14.886,3.158,41.572-13.072,50-19,12.359-8.693,44.444-41.95,22-59C428.652,100.838,419.986,103.043,402,102Zm-43,50h34l-3,4C380.393,156.742,363.47,159.583,359,152Z"/>
  <path id="Ellipse_5_copy" data-name="Ellipse 5 copy" class="cls-10" d="M360.762,171.287c30.143-8.591,60.928,9.415,68.759,40.218s-10.257,62.737-40.4,71.327-60.927-9.415-68.759-40.218S330.619,179.877,360.762,171.287Z"/>
  <path class="cls-11" d="M362.445,173.743c30.143-8.591,60.927,9.416,68.758,40.218s-10.257,62.737-40.4,71.327-60.927-9.415-68.758-40.218S332.3,182.334,362.445,173.743Z"/>
  <path id="Ellipse_4_copy" data-name="Ellipse 4 copy" class="cls-12" d="M362.917,184.617c22.608-6.443,48.105,5.441,54.134,29.157s-9.6,50.625-32.212,57.068-45.649-6.875-51.678-30.591S340.31,191.06,362.917,184.617Z"/>
  <path id="Ellipse_4_copy_2" data-name="Ellipse 4 copy 2" class="cls-13" d="M365.934,188.161c22.607-6.443,48.1,5.441,54.134,29.157s-9.606,50.625-32.213,57.068-45.648-6.875-51.677-30.591S343.326,194.6,365.934,188.161Z"/>
  <path class="cls-14" d="M365.586,186.792c22.607-6.443,48.1,5.441,54.134,29.157s-9.605,50.625-32.213,57.068-45.648-6.875-51.677-30.591S342.978,193.235,365.586,186.792Z"/>
  <path id="Shape_17_copy" data-name="Shape 17 copy" class="cls-12" d="M381.345,212.024l1.285,3.67,2.408,1.149,12.494-3.561-10.248-13.959-2.321-.806-28.914,9.708-4.568,29.19,16.3,22.509,2.408,1.149,31.563-9-2.288-29.805-2.407-1.148-18.635,7.145-0.146,7.748,2.407,1.148,9.535-2.717,0.463,10.143-15.211,3.968-11.1-15.918,2.506-16.494Z"/>
  <path id="Shape_17_copy_2" data-name="Shape 17 copy 2" class="cls-10" d="M377.932,209.694l3.693,4.819,12.494-3.561L383.87,196.993l-31.235,8.9-4.567,29.19,18.708,23.658,31.564-9-2.288-29.805-21.043,6,2.262,8.9,9.535-2.718,0.463,10.143-15.211,3.968-11.1-15.918,2.507-16.494Z"/>
  <path class="cls-15" d="M378.937,210.876l3.693,4.818,12.5-3.56-10.249-13.96-31.235,8.9-4.568,29.191,18.709,23.657,31.564-8.995-2.288-29.805-21.043,6,2.262,8.9,9.535-2.718,0.463,10.143-15.212,3.968-11.1-15.918L364.47,215Z"/>
  <path id="Color_Fill_1" data-name="Color Fill 1" class="cls-16" d="M480.626,200.681c3.584,1.8,20.385,28.8,17.442,36.278-4.856,11.489-29.208,19.026-46.17,13.872v-0.356c2.434-4.884,2.3-15.851.684-21.7H452.24c-2.913,20.251-4.2,27.079-23.6,31.3-3.942.858-13.612,0.859-16.416-1.778l-1.368-1.067,0.342-2.845a6.14,6.14,0,0,1,3.42-3.557c6.681,1.188,9.289,2.431,14.706,2.845,0.03-.114,6.84-0.593,6.84-0.711-9.394.149-31.945-6.324-24.282-17.784,4.765-7.125,18.51,2.3,27.018-1.067-13.017-1.978-27.195.147-26.334-12.8,0.836-12.574,18.469-9.216,25.308-6.047a16.017,16.017,0,0,1,4.446,3.2c0.228-.118.456,0.83,0.684,0.712-3.07-3.745-8.04-5.683-13.338-7.114a12.718,12.718,0,0,0,0-4.624h2.394c12.646,4.149,19.3,6.173,22.23,17.429,5.2-4.845,22.349-9.811,27.018-5.691-5.462-2.444-9.973-1.087-14.364-3.2,0.228-.238.456-1.542,0.684-1.779C471.809,208.254,476.439,204.706,480.626,200.681Z"/>
  <path id="Color_Fill_1_copy" data-name="Color Fill 1 copy" class="cls-16" d="M271.01,200.681c-3.59,1.8-19.737,29.18-16.788,36.634,4.864,11.458,27.547,17.107,44.537,11.967v-0.355c-2.438-4.872-.6-15.808,1.027-21.637h0.342c2.918,20.2,3.529,28.425,22.954,32.634,3.949,0.856,13.636.857,16.444-1.774l1.371-1.064q-0.171-1.419-.343-2.838c-0.738-1.925-1.546-3.568-3.226-4.484-6.693,1.185-9.5,3.361-14.931,3.775-0.03-.114-6.851-0.592-6.851-0.71,9.41,0.149,32-6.308,24.323-17.738-4.773-7.106-14.239-.473-24.087-0.977,13.039-1.973,24.264.06,23.4-12.858-0.837-12.541-16.552-10.221-23.4-7.06a31.587,31.587,0,0,0-6.4,4.222c-0.228-.118-0.457.828-0.685,0.71,3.075-3.736,7.936-5.639,13.244-7.066a12.99,12.99,0,0,1,.117-4.641h-2.4c-12.668,4.137-19.336,6.157-22.268,17.383-5.208-4.833-22.387-9.785-27.064-5.676,5.471-2.438,9.99-1.084,14.388-3.193-0.228-.237-0.456-1.537-0.685-1.774C279.842,208.235,275.2,204.7,271.01,200.681Z"/>
  <path class="cls-17" d="M452.582,220.6s8.937-11.467,25.992-23.119l2.394,3.2s-11.757,9.271-13.338,14.938c0,0,10.824.947,14.706,3.557,0,0-12.429-4.912-28.044,5.691Z"/>
  <path id="Shape_3_copy" data-name="Shape 3 copy" class="cls-17" d="M299.024,220.6s-8.937-11.467-25.992-23.119l-2.394,3.2s11.757,9.271,13.338,14.938c0,0-10.825.947-14.706,3.557,0,0,12.429-4.912,28.044,5.691Z"/>
  <path class="cls-18" d="M269.783,247.749c9.462,3.22,18.924,2.168,28.386,1.9-1.116-8.007-2.214-15.95,1.4-23.893,1.364,2.615,3.449,6.119,3.033,9.621-0.465,3.356-.28,7.715,1.388,9.276a32.588,32.588,0,0,0,9.481,10.718c2.433,1.947,8.167,3.573,11.986,3.97,5.317,0.748,13.635,1.374,15.137-2.624,0.138-4.087-1.506-5.083-4.352-6.221-7.176,3.223-13.9,4.867-20.628,2.861-0.228-.1-0.627-0.866,0-0.57a58.656,58.656,0,0,0,14.706-3.095c5.508-1.656,7.127-3.344,9.694-6.122,1.622-1.912,1.036-7.117-.562-8.487-1.159-2.952-6.746-3.87-10.46-1.4-5.878,1.292-11.693,2.188-17.046.551a112.436,112.436,0,0,0,15.98-3.091c6.234-1.708,8.726-2.892,10.657-6.98,0.822-4.1-.19-8.209-2.479-9.03-2.58-2.126-8.477-3.867-12.554-2.382-7.441,1.675-12.035,3.861-15.117,6.586-0.343.014,5.385-7.131,15.56-8.344s15.048,2.65,17.1,6.758,0.772,9.059-2.736,12.449a13.486,13.486,0,0,1,5.814,9.247c0.417,3.107-1.619,6.842-4.788,9.248a7.287,7.287,0,0,1,4.1,7.113c-0.464,5.059-3.385,9.159-10.944,11.382s-10.711,1.761-16.074,1.067c-4.259-.551-9.234-6.758-9.234-6.758s-13.442,1.611-19.836,1.779-19.975-.738-26.334-7.825-7.757-15.624-7.182-20.63C253.88,234.825,258.719,245.147,269.783,247.749Z"/>
  <path class="cls-17" d="M452.466,226.449s-3.217,4.429-3.588,16.262c-1.111,4.936-8.609,11.895-13,14.083a40,40,0,0,1-13.343,3.2c-3.543-.522-9.914.311-11.526-2.9-0.26-5.78,3.767-7.6,9.6-4.322a29.218,29.218,0,0,0,15.219.544s-0.1-.346-1.671-0.416c-8.191-.7-19.566-4.044-21.951-8.9-2.023-1.878-1.738-6.9-.143-8.355,1.124-2.685,5.411-4.266,9.641-2.177,5.631,1.052,10.989,2.132,16.347,1.061a7.952,7.952,0,0,0,1.539-.423c-8.9-1.612-25.024-2.735-26.3-10.2-1.292-4.019,1.253-8.31,2.883-8.624a15.2,15.2,0,0,1,12.249-2.208c6.956,0.643,13.907,5.735,13.907,5.735a11.59,11.59,0,0,1,1.539,1.245c-0.1-1.507-2.419-3.335-5.418-5.159s-15.2-5.857-22.881-2.288a11.755,11.755,0,0,0-5.548,7.037c-1.186,4.109,1.362,8.232,2.725,10.013,0.627-.3.228,0.474,0,0.672-2.6,1.77-4.113,3.305-5.2,8.416,0.273,5.153,2.345,7.447,4.244,9.8-1.2,1.5-2.423,2.114-3.133,4.911-0.871,2.323.283,6.437,0.575,7.032,0.126,0.255.409,0.745,4.244,3.976a27.641,27.641,0,0,0,5.525,2.7,22.474,22.474,0,0,0,4.686.916c2.061,0.192,12.149.911,16.582-2.484s2.833-5.018,7.906-3.522c5.266,0.617,10.4,1.032,15.526,1.407,7.182,0.015,14.022-.719,20.862-3.716a29.481,29.481,0,0,0,6.912-5.139c3.052-3.524,7.661-11.162,6.939-18.748,0.066-.016-11.68,19.331-45.144,13.872C456.922,233,452.466,226.449,452.466,226.449Z"/>
  <path class="cls-19" d="M323.648,115.318c0.836-.413,2.508-0.2,4.575.814,9.514,4.666,23.811,11.117,45.015,11.635,27.039,0.66,48.564-11.737,48.564-11.737s3.572-2.895,5.814-1.423-2.052,7.113-2.052,7.113-13.288,25.526-50.274,24.186-48.116-19.145-51.3-25.608C323.99,120.3,321.234,116.511,323.648,115.318Z"/>
  <path class="cls-20" d="M340.406,137.37s2.914-1.628,4.788-.711a8.343,8.343,0,0,1,3.078,3.2s2.654-5.378,4.446-4.98,4.788,7.114,4.788,7.114,1.373-3.8,3.42-3.913,5.036,1.188,10.26.712c2.469-.3,4.113-0.089,4.1,4.624,0,0,.814-4.93,4.1-4.98,2.263-.035,4.266.2,6.156,0s3.784-.656,4.788-0.711,1.994-.508,3.762,3.912c0,0,2.144-7.107,5.13-6.758s4.1,4.98,4.1,4.98,1.7-3.08,4.1-3.557c1.161-.243,3.42.711,3.42,0.711s-12.834,8.96-32.815,9.524C367.074,146.848,352.827,143.877,340.406,137.37Z"/>
  <path id="Color_Fill_3" data-name="Color Fill 3" class="cls-21" d="M375.432,130.829l0.407,0.008c0.124,0.354.251,0.708,0.374,1.063,1.127,3.268,1.715,3.681,4.981,3.713a63.107,63.107,0,0,0,14.032-1.824,5.948,5.948,0,0,0,4.749-3.932,22.944,22.944,0,0,1,1.424-2.674,39.844,39.844,0,0,0,2.887,4.406c1.466,1.7,2.44,1.666,3.89.043,2.878-3.221,4.09-7.311,5.775-11.788a103.968,103.968,0,0,1-25.269,6.829,105.781,105.781,0,0,1-25.638.095c-8.532-.963-16.683-3.549-24.924-6.26a24.539,24.539,0,0,0,1.7,5.026,51.566,51.566,0,0,0,3.468,6.144c1.206,1.779,2.667,1.753,4.056.106a20.5,20.5,0,0,0,1.694-2.688c0.375-.621.725-1.259,1.228-2.136a12.767,12.767,0,0,1,.794,1.447,8.518,8.518,0,0,0,5.711,5.324,43.115,43.115,0,0,0,15.1,1.858,3.01,3.01,0,0,0,2.909-2.4C375.028,132.411,375.218,131.616,375.432,130.829Z"/>
  <path id="Color_Fill_4" data-name="Color Fill 4" class="cls-22" d="M332.2,54.853c13.1-.355,24.233,2.461,29.412,10.315l-0.342,3.2h-0.342c-4.076-.637-6.6-3.492-9.918-4.979-9.527-4.269-22.351-4.269-32.832-1.423V60.544l6.84-3.912Z"/>
  <path id="Color_Fill_4_copy" data-name="Color Fill 4 copy" class="cls-22" d="M418.04,54.887c-13.1-.354-24.233,2.455-29.412,10.289l0.342,3.193h0.342c4.076-.636,6.6-3.483,9.918-4.967,9.527-4.259,22.351-4.258,32.832-1.419V60.563l-6.84-3.9Z"/>
  <path class="cls-23" d="M316.466,90.777s20.966,2.416,30.1,7.114c0,0,6.055-15-11.628-21.341S316.466,90.777,316.466,90.777Z"/>
  <path id="Shape_9_copy" data-name="Shape 9 copy" class="cls-23" d="M434.114,90.822s-20.98,2.4-30.117,7.068c0,0-5.788-14.137,11.636-21.2C432.756,71.461,434.114,90.822,434.114,90.822Z"/>
  <circle class="cls-24" cx="337.672" cy="87.578" r="4.109"/>
  <circle id="Ellipse_2_copy" data-name="Ellipse 2 copy" class="cls-24" cx="411.547" cy="87.578" r="4.109"/>
  <path class="cls-25" d="M311.678,92.2s7.515,20.24,30.1,9.959C341.774,102.158,321.939,105.6,311.678,92.2Z"/>
  <path id="Shape_10_copy" data-name="Shape 10 copy" class="cls-25" d="M438.9,92.2s-7.515,20.135-30.1,9.908C408.806,102.107,428.64,105.534,438.9,92.2Z"/>
  <path class="cls-26" d="M357.848,95.4s-7.533,1.8-7.866,7.825,3.435,8.257,6.156,9.6,7.976,4.009,10.944,7.825c1.935,2.116,5.8,2.49,7.182,2.49s6.422-.3,8.55-2.845a25.554,25.554,0,0,1,10.944-7.114,10.286,10.286,0,0,0,7.182-8.536c0.271-3.275.166-6.914-6.84-7.825S357.848,95.4,357.848,95.4Z"/>
  <path class="cls-27" d="M352.034,101.447s-3.228,4.877,4.788,11.026c0,0-2.611-3.492.342-4.624s5.951,4.454,7.866,7.825,5.559,6.253,8.892,6.046,6.358-.048,10.6-6.046,5.456-8.566,8.892-7.114c1.754,0.78,0,3.913,0,3.913s10.695-4.248,4.446-12.8l-11.628-2.845-15.732.356Z"/>
  <path class="cls-28" d="M354.77,95.756s-5.188,3.384-2.736,7.114c1.171,1.51,6.483,1.945,9.234-2.49,0,0,2.822,12.388,13,12.448s13.771-12.264,13.68-13.871c0,0,4.823,4.981,7.524,4.98s3.383-3.356,3.078-4.269-2.21-5.82-8.55-4.624c0,0-.1-14.525-14.706-15.294-12.836-.676-15.39,15.294-15.39,15.294A7.047,7.047,0,0,0,354.77,95.756Z"/>
  <path class="cls-29" d="M354.77,95.756c-1.675.987-4.895,5.894-2.736,7.114a29.2,29.2,0,0,1,8.892-6.047C361.569,95.306,357.977,93.866,354.77,95.756Z"/>
  <path id="Shape_12_copy" data-name="Shape 12 copy" class="cls-29" d="M395.125,95.608c1.655,1.008,4.528,3.527,2.395,4.772a37.319,37.319,0,0,0-8.476-3.683C388.408,95.149,391.957,93.679,395.125,95.608Z"/>
  <path class="cls-30" d="M374.833,84.166c4.374,0,10.033,9.061,10.033,16.569s-7.146,8.656-10.19,8.656-9.3-1.5-9.3-9.011S370.263,84.319,374.833,84.166Z"/>
  <path class="cls-31" d="M482.336,65.879s2.568,5.675-2.394,21.341c0,0,16.248-28.371,34.542-34.5C514.484,52.719,493.035,53.669,482.336,65.879Z"/>
  <path class="cls-32" d="M514.484,52.364s-39.3,1.613-59.166,41.614c-1.884,3.54-2.717,11.1,1.71,13.16s8.191-1.524,9.918-5.691-0.684-11.026-.684-11.026S475.9,61.721,514.484,52.364Z"/>
  <path id="Shape_16_copy" data-name="Shape 16 copy" class="cls-31" d="M269.55,65.906s-2.561,5.686,2.388,21.383c0,0-16.207-28.428-34.456-34.57C237.482,52.72,258.877,53.671,269.55,65.906Z"/>
  <path id="Shape_15_copy" data-name="Shape 15 copy" class="cls-32" d="M237.482,52.364s39.2,1.616,59.02,41.7c1.878,3.547,2.71,11.125-1.706,13.187s-8.171-1.527-9.894-5.7,0.683-11.048.683-11.048S275.971,61.74,237.482,52.364Z"/>
  <path class="cls-33" d="M307.232,220.6c0.7-3.011,24.146-15.169,31.122-2.845C338.354,217.753,326.171,210.587,307.232,220.6Z"/>
  <path class="cls-34" d="M297.656,225.222s-13.758-11.431-30.438-5.335c0,0,17.444-.824,29.754,7.825Z"/>
  <path id="Shape_18_copy" data-name="Shape 18 copy" class="cls-33" d="M445.058,220.634c-0.7-3-24.146-15.092-31.122-2.831C413.936,217.8,426.119,210.674,445.058,220.634Z"/>
  <path id="Shape_19_copy" data-name="Shape 19 copy" class="cls-34" d="M454.634,225.235s13.758-11.374,30.438-5.308c0,0-17.444-.82-29.754,7.785Z"/>
  <path id="Ellipse_5_copy-2" data-name="Ellipse 5 copy" class="cls-10" d="M1360.04,175.8c24.93-14.255,56.52-5.953,70.56,18.545s5.22,55.912-19.71,70.168-56.52,5.953-70.56-18.545S1335.11,190.057,1360.04,175.8Z"/>
  <path class="cls-35" d="M1362.1,177.512c24.93-14.256,56.52-5.953,70.57,18.544s5.21,55.913-19.71,70.168-56.53,5.953-70.57-18.544S1337.17,191.767,1362.1,177.512Z"/>
  <path id="Ellipse_4_copy-2" data-name="Ellipse 4 copy" class="cls-12" d="M1365.02,186.686c18.69-10.691,44.16-6.4,54.98,12.46s3.02,45.424-15.68,56.115a38.688,38.688,0,0,1-53.11-14.248C1340.4,222.152,1346.32,197.378,1365.02,186.686Z"/>
  <circle id="Ellipse_4_copy_2-2" data-name="Ellipse 4 copy 2" class="cls-36" cx="1388.875" cy="223.063" r="39.565"/>
  <circle class="cls-37" cx="1388.25" cy="221.969" r="39.56"/>
  <path id="Shape_17_copy-2" data-name="Shape 17 copy" class="cls-12" d="M1387.73,205.852l1.99,2.838,2.41,0.427,10.34-5.908-12.35-9.564-2.25-.155-23.58,14.927,2.61,25.968,19.7,15.473,2.42,0.427,26.1-14.927-8.87-24.919-2.41-.427-14.99,10.379,1.64,6.647,2.41,0.428,7.89-4.509,2.74,8.552-12.67,6.881-13.55-11.041-1.54-14.656Z"/>
  <path id="Shape_17_copy_2-2" data-name="Shape 17 copy 2" class="cls-10" d="M1384.16,204.647l4.39,3.265L1398.89,202l-12.34-9.563-25.84,14.772,2.61,25.968,22.12,15.9,26.1-14.927-8.87-24.919-17.4,9.952,4.05,7.075,7.89-4.509,2.74,8.552-12.67,6.881-13.55-11.041-1.54-14.656Z"/>
  <path class="cls-15" d="M1385.32,205.424l4.4,3.266,10.34-5.909-12.35-9.563-25.83,14.771,2.61,25.969,22.11,15.9,26.11-14.928-8.87-24.918-17.4,9.951,4.05,7.075,7.89-4.509,2.73,8.552-12.66,6.881-13.55-11.041-1.54-14.655Z"/>
  <path id="Gamesgoblin" class="cls-38" d="M621.367,248.208q-23.094,3.528-42.008-11.759a53.291,53.291,0,0,1-6.305-6.174q-14.663-18.225-11.8-40.792T582.878,153.1q19.206-13.228,41.348-8.525t34.309,24.548l19.5-14.847q-17.595-25.135-42.154-32.118A78.695,78.695,0,0,0,549.3,153.028q-14.663,20.948-12.462,51.669,3.958,29.4,23.679,47.48a78.625,78.625,0,0,0,46.26,20.8q26.535,2.72,51.171-13.891s-1.081,9.468,4.919,12.983c6.167,3.613,19.42,1.276,19.42,1.276V192.056H657.949v32.192Q644.458,244.681,621.367,248.208ZM763.81,171.917a32.332,32.332,0,0,0-15.688-4.263q-20.821,0-35.63,13.965t-16.861,34.838a40.454,40.454,0,0,0,0,6.909v1.176q2.052,21.022,16.861,34.912t35.63,13.891a32.769,32.769,0,0,0,15.688-4.189,34,34,0,0,0,12.757-12.128S776.59,267.373,782,271c6.634,4.447,18.906,2.345,18.906,2.345V216.457H776.273a28.079,28.079,0,0,1,0,8.085,28.928,28.928,0,0,1-9.6,17.493,28.355,28.355,0,0,1-37.1,0,28.244,28.244,0,0,1-9.457-17.493,27.937,27.937,0,0,1,0-8.085,28.249,28.249,0,0,1,9.457-17.493,28.227,28.227,0,0,1,33.65-2.5,24.3,24.3,0,0,0,12.9,3.674h1.026a23.809,23.809,0,0,0,23.753-23.813v-8.673H776.567v16.317A34.987,34.987,0,0,0,763.81,171.917Zm155.2,1.47q-9.457,5.733-15.322,17.493-0.148-.441-0.294-0.882a33.572,33.572,0,0,0-7.111-13.157q-5.058-5.805-14.442-8.158a41.421,41.421,0,0,0-9.677-1.029q-17.451,0-30.791,18.081V167.654H817.035V273.345h24.339v-47.48a46.559,46.559,0,0,1,2.639-14.773,29.31,29.31,0,0,1,9.091-13.3q6.45-5.436,17.448-5.732h0.293q7.182,0,9.091,6.688t1.906,18.6v56.006h24.339v-47.48a45.377,45.377,0,0,1,2.713-14.773,30.087,30.087,0,0,1,9.09-13.3q6.378-5.436,17.375-5.732h0.293q7.183,0,9.091,6.688t1.906,18.6v56.006h24.339V217.339q0-4.262-.146-10.584a69.546,69.546,0,0,0-1.613-13.082,41.659,41.659,0,0,0-4.985-12.642A27.2,27.2,0,0,0,954.2,171.4q-6.525-3.749-17.228-3.749Q928.467,167.654,919.011,173.387Zm74.409,17.139a53.324,53.324,0,0,0-8.985,35.583,56.315,56.315,0,0,0,1.564,8.1,55.215,55.215,0,0,0,2.659,7.657,53.31,53.31,0,0,0,25.572,26.324,50.344,50.344,0,0,0,36.27,3.369,51.358,51.358,0,0,0,20.33-10.544,53.246,53.246,0,0,0,13.58-17.565l-22.37-9.833a28.278,28.278,0,0,1-35.68,13.289,28.689,28.689,0,0,1-13.63-11.491l76.48-20.492a44.2,44.2,0,0,0-1.38-8,45.387,45.387,0,0,0-2.84-7.762,52.663,52.663,0,0,0-25.43-26.361A52.683,52.683,0,0,0,993.42,190.526Zm21.15,12.366a28.388,28.388,0,0,1,32.86-8.8,28.767,28.767,0,0,1,13.63,11.49l-52.55,14.079A28.723,28.723,0,0,1,1014.57,202.892Zm113.67-9.146q2.565-1.984,9.53-3.454t20.31-1.47a55.518,55.518,0,0,1,31.82,9.849s12.16-24.347-9.09-28.665a117.862,117.862,0,0,0-23.46-2.352q-18.195,0-30.65,4.263t-18.91,11.245q-6.465,6.984-6.45,15.214t4.39,13.6a33.271,33.271,0,0,0,11.66,8.819,83.582,83.582,0,0,0,15.84,5.586q8.565,2.133,17.22,3.749t15.84,3.307a45.72,45.72,0,0,1,11.66,4.19q4.47,2.5,4.47,6.467c0,0.883-1.01,1.962-3.01,3.235a31.3,31.3,0,0,1-9.38,3.38,76.45,76.45,0,0,1-16.64,1.47,67.2,67.2,0,0,1-22.14-3.454,81.757,81.757,0,0,1-17.89-8.6s-12.4,24.328,10.56,29.84a125.658,125.658,0,0,0,29.47,3.381,101.079,101.079,0,0,0,23.53-2.426,53.921,53.921,0,0,0,16.64-6.688,30.48,30.48,0,0,0,9.9-9.775,22.392,22.392,0,0,0,3.3-11.687q0-9.405-5.94-15.434a44.54,44.54,0,0,0-15.1-9.775,119.308,119.308,0,0,0-19.5-6.027q-10.335-2.278-19.58-4.116a98.523,98.523,0,0,1-15.1-4.043q-5.865-2.205-5.86-5.879Q1125.68,195.731,1128.24,193.746Z"/>
  <path id="Color_Fill_5" data-name="Color Fill 5" class="cls-8" d="M1323.76,273.2q0.15-1.909.15-3.969V216.31h-24.63a28.32,28.32,0,0,1-4.11,19.4,27.2,27.2,0,0,1-15.32,11.759,29.645,29.645,0,0,1-18.77-.514,26.721,26.721,0,0,1-14.59-12.715,27.93,27.93,0,0,1-3.37-17.934,27.4,27.4,0,0,1,4.25-11.172,27.8,27.8,0,0,1,13.64-11.171,28.186,28.186,0,0,1,17.74-1.029,75.987,75.987,0,0,1,10.26,4.777,20.337,20.337,0,0,0,11.15,2.425,23.818,23.818,0,0,0,23.75-23.813v-8.673h-24.34v16.17a34.335,34.335,0,0,0-12.76-11.98,32.49,32.49,0,0,0-15.54-4.19q-20.82,0-35.7,13.891t-16.94,34.765a52.61,52.61,0,0,0,8.66,33.074,51.946,51.946,0,0,0,26.83,21.021q1.905,0.59,3.81,1.176a0.614,0.614,0,0,1,.44.147,18.006,18.006,0,0,1,1.91.441,4.317,4.317,0,0,1,1.02.147,3.227,3.227,0,0,0,1.03.147c0.58,0.1,1.22.2,1.9,0.294a1.3,1.3,0,0,0,.59.147q1.47,0.149,2.79.294h5.86a2.319,2.319,0,0,0,.73-0.147h0.74a0.43,0.43,0,0,0,.29-0.147,7.4,7.4,0,0,0,1.47-.147,2.745,2.745,0,0,1,.88-0.147,0.4,0.4,0,0,1,.29-0.147,1.331,1.331,0,0,0,.59-0.147,0.6,0.6,0,0,0,.44-0.147h0.58a2539953733081.518,2539953733081.518,0,0,0,.88-0.294,0.614,0.614,0,0,1,.44-0.147c0.59-.195,1.22-0.441,1.91-0.735a35.168,35.168,0,0,0,13.93-9.849,31.608,31.608,0,0,0,2.93-4.116v12.2m261.43-51.6v-1.176a53.374,53.374,0,0,0-16.94-34.838,50.336,50.336,0,0,0-35.7-13.965,31.137,31.137,0,0,0-12.24,2.646,36.254,36.254,0,0,0-11.22,7.5c-0.1.1-.24,0.246-0.44,0.441a2.7,2.7,0,0,1-.73.735,6.306,6.306,0,0,1-.73.882,30.941,30.941,0,0,0-2.94,4.116V119h-24.34V224.542h24.64a7.319,7.319,0,0,1-.15-1.47,3.193,3.193,0,0,1-.15-1.029v-3.087a4.245,4.245,0,0,1,.15-1.029,7.357,7.357,0,0,1,.15-1.47,27.635,27.635,0,0,1,8.06-16.023,26.87,26.87,0,0,1,19.94-8.378,27.167,27.167,0,0,1,18.55,6.908,28.9,28.9,0,0,1,9.6,17.493,28.079,28.079,0,0,1,0,8.085,28.9,28.9,0,0,1-9.6,17.493,27.157,27.157,0,0,1-18.55,6.908h-2.2a0.6,0.6,0,0,0-.44-0.147,13.3,13.3,0,0,1-1.9-.147,0.618,0.618,0,0,0-.44-0.147h-0.44l-0.15-.147h-0.44a0.618,0.618,0,0,0-.44-0.147c-0.29-.1-0.64-0.195-1.03-0.294a1.118,1.118,0,0,1-.44-0.147,24.571,24.571,0,0,1-7.33-3.233,23.324,23.324,0,0,0-12.61-3.675h-1.02a23.818,23.818,0,0,0-23.76,23.813v8.673h24.34V257.028a30.747,30.747,0,0,0,2.94,4.116,6.306,6.306,0,0,1,.73.882,6.306,6.306,0,0,1,.73.882,1.744,1.744,0,0,1,.44.294,34.022,34.022,0,0,0,11.22,7.57,31.877,31.877,0,0,0,12.24,2.573q20.82,0,35.7-13.891T1561,224.542v-2.205a1.4,1.4,0,0,0,.14-0.588v-0.588a26.057,26.057,0,0,0-.14-2.646v-0.882h0Zm37.68,55.712V119h-24.34V273.345h24.34Zm44.72,0V167.654h-24.34V273.345h24.34ZM1631.23,119a16.417,16.417,0,1,0,11.58,4.777A15.89,15.89,0,0,0,1631.23,119h0Zm74.92,53.507a54.3,54.3,0,0,0-18.03,13.23V167.654h-24.34V273.345h24.34V232.333a38.481,38.481,0,0,1,11.58-28.224q11.58-11.61,28.59-12.053h0.3c4.49,0,7.92,1.274,10.26,3.822a20.541,20.541,0,0,1,4.77,10.289,76.518,76.518,0,0,1,1.24,14.406v52.772h24.34V220.573q0-4.262-.22-10.878a72.013,72.013,0,0,0-1.9-13.891,40.83,40.83,0,0,0-5.94-13.6,32.415,32.415,0,0,0-12.02-10.437q-7.785-4.113-20.53-4.116A53.12,53.12,0,0,0,1706.15,172.505Z"/>
  <path class="cls-8" d="M569.01,447.75s-9.049-3.764-10.5-13.75c0,0-3.134,36.008,6,55,0,0,8.683-37.231,22.488-44.306C587,444.694,581.479,448.2,569.01,447.75Z"/>
  <path id="Color_Fill_6" data-name="Color Fill 6" class="cls-8" d="M1308,262c11.1,0.576,16.28,3.552,16.12,13.924-0.55,34.208-15.62,51.682-24.12,64.076-31.25,34.673-75.08,44.708-108,48s-128.92-2.517-175-17-218.664-67.372-319-28c-39.738,15.593-79.892,38.417-104,70q-17.5,29.5-35,59c29.5-116.485,165.949-181.066,322-151l177,40c4.32,0.415,84.65,14.558,136,6,48.56-9.32,62.52-15.862,90-47,16.69-24.359,15.01-51.285,15.01-51.285S1304.9,264.4,1308,262Z"/>
</svg>
