<svg xmlns="http://www.w3.org/2000/svg" xmlns:xlink="http://www.w3.org/1999/xlink" width="400" height="100" viewBox="0 0 2000 500">
  <defs>
    <style>
      .cls-1 {
        fill: #fbf4a2;
      }

      .cls-1, .cls-2, .cls-3, .cls-4, .cls-5, .cls-6, .cls-7, .cls-8 {
        fill-rule: evenodd;
      }

      .cls-2 {
        fill: url(#linear-gradient);
      }

      .cls-3 {
        fill: #cc8416;
      }

      .cls-4 {
        fill: #fdf9be;
      }

      .cls-5 {
        fill: #fdb529;
      }

      .cls-6 {
        fill: #ffd454;
      }

      .cls-7 {
        fill: #fff;
      }

      .cls-8 {
        fill: #86bf42;
      }
    </style>
    <linearGradient id="linear-gradient" x1="1290" y1="217.812" x2="1290" y2="88.813" gradientUnits="userSpaceOnUse">
      <stop offset="0" stop-color="#fcb31e"/>
      <stop offset="1" stop-color="#fdc72a"/>
    </linearGradient>
  </defs>
  <path id="Ellipse_5_copy" data-name="Ellipse 5 copy" class="cls-1" d="M1255.5,95.419c31.29-17.914,70.94-7.481,88.56,23.3s6.55,70.263-24.74,88.177-70.93,7.481-88.56-23.3S1224.21,113.333,1255.5,95.419Z"/>
  <path class="cls-2" d="M1258.09,97.568c31.29-17.914,70.94-7.481,88.56,23.3s6.55,70.262-24.74,88.177-70.93,7.48-88.56-23.3S1226.8,115.482,1258.09,97.568Z"/>
  <path id="Ellipse_4_copy" data-name="Ellipse 4 copy" class="cls-3" d="M1261.75,109.1c23.46-13.435,55.43-8.044,69,15.658s3.79,57.082-19.67,70.517a48.527,48.527,0,0,1-66.66-17.9C1230.85,153.665,1238.28,122.533,1261.75,109.1Z"/>
  <path id="Ellipse_4_copy_2" data-name="Ellipse 4 copy 2" class="cls-4" d="M1266.14,112.028c23.47-13.435,55.44-8.044,69,15.659s3.8,57.081-19.66,70.517a48.537,48.537,0,0,1-66.67-17.906C1235.24,156.6,1242.68,125.464,1266.14,112.028Z"/>
  <path class="cls-5" d="M1265.36,110.66c23.46-13.435,55.43-8.044,69,15.659s3.8,57.081-19.67,70.517a48.527,48.527,0,0,1-66.66-17.906C1234.46,155.228,1241.89,124.1,1265.36,110.66Z"/>
  <path id="Shape_17_copy" data-name="Shape 17 copy" class="cls-3" d="M1290.26,133.181l2.49,3.567,3.03,0.537,12.97-7.425-15.49-12.018-2.83-.195-29.59,18.758,3.28,32.633,24.72,19.444,3.03,0.537,32.76-18.759-11.13-31.314-3.03-.537-18.81,13.043,2.06,8.354,3.03,0.537,9.89-5.667,3.44,10.748-15.9,8.646-17-13.874-1.94-18.417Z"/>
  <path id="Shape_17_copy_2" data-name="Shape 17 copy 2" class="cls-1" d="M1285.77,131.667l5.52,4.1,12.97-7.425-15.49-12.018-32.42,18.563,3.27,32.633,27.76,19.98,32.76-18.758-11.13-31.314-21.84,12.506,5.09,8.891,9.89-5.667,3.44,10.748-15.9,8.646-17-13.874-1.94-18.417Z"/>
  <path class="cls-6" d="M1287.23,132.644l5.52,4.1,12.97-7.425-15.49-12.018-32.42,18.563,3.28,32.633,27.75,19.981,32.76-18.759-11.13-31.314-21.84,12.506,5.09,8.891,9.9-5.667,3.43,10.748-15.89,8.646-17.01-13.874-1.93-18.417Z"/>
  <path id="Gamesgoblin" class="cls-7" d="M328.433,186.409q-28.983,4.434-52.721-14.778a66.715,66.715,0,0,1-7.913-7.758q-18.4-22.9-14.814-51.261t27.143-45.719q24.1-16.625,51.893-10.714t43.06,30.849l24.475-18.657q-22.083-31.588-52.9-40.362A98.7,98.7,0,0,0,237.988,66.8q-18.4,26.323-15.642,64.93,4.969,36.948,29.719,59.666a98.624,98.624,0,0,0,58.058,26.138q33.3,3.416,64.222-17.456s-1.357,11.9,6.174,16.314c7.74,4.54,24.373,1.6,24.373,1.6V115.845H374.345V156.3Q357.413,181.978,328.433,186.409ZM507.206,90.538a40.532,40.532,0,0,0-19.689-5.357q-26.133,0-44.717,17.548t-21.162,43.78a50.949,50.949,0,0,0,0,8.682v1.478q2.576,26.418,21.162,43.871T487.517,218a41.069,41.069,0,0,0,19.689-5.265,42.672,42.672,0,0,0,16.01-15.239s0.029,13,6.819,17.557c8.326,5.589,23.728,2.947,23.728,2.947V146.509H522.848a35.363,35.363,0,0,1,0,10.16A36.366,36.366,0,0,1,510.8,178.651a35.549,35.549,0,0,1-46.557,0,35.508,35.508,0,0,1-11.869-21.982,35.15,35.15,0,0,1,0-10.16,35.513,35.513,0,0,1,11.869-21.982,35.39,35.39,0,0,1,42.232-3.141,30.463,30.463,0,0,0,16.194,4.619h1.288a29.9,29.9,0,0,0,29.811-29.926v-10.9H523.216v20.5A43.918,43.918,0,0,0,507.206,90.538ZM701.99,92.385q-11.87,7.2-19.23,21.982-0.186-.555-0.368-1.108a42.2,42.2,0,0,0-8.925-16.533q-6.349-7.3-18.126-10.252A51.9,51.9,0,0,0,643.2,85.181q-21.9,0-38.644,22.721V85.181H574.005V218h30.547V158.331a58.549,58.549,0,0,1,3.313-18.565,36.827,36.827,0,0,1,11.409-16.717q8.1-6.833,21.9-7.2h0.368q9.014,0,11.409,8.405t2.392,23.367V218h30.547V158.331a57.111,57.111,0,0,1,3.4-18.565,37.817,37.817,0,0,1,11.41-16.717q8-6.833,21.806-7.2h0.368q9.014,0,11.409,8.405t2.392,23.367V218h30.547v-70.38q0-5.355-.184-13.3a87.478,87.478,0,0,0-2.024-16.44,52.4,52.4,0,0,0-6.257-15.887,34.165,34.165,0,0,0-12.605-12.1q-8.19-4.71-21.622-4.71Q713.858,85.181,701.99,92.385Zm93.386,21.537A67.075,67.075,0,0,0,784.1,158.637a70.536,70.536,0,0,0,1.963,10.183,69.146,69.146,0,0,0,3.337,9.623,66.964,66.964,0,0,0,32.094,33.08q21.705,10.626,45.522,4.233a64.339,64.339,0,0,0,25.507-13.25,66.82,66.82,0,0,0,17.049-22.072L881.5,168.077a35.472,35.472,0,0,1-44.778,16.7,35.978,35.978,0,0,1-17.1-14.44L915.6,144.584a55.941,55.941,0,0,0-1.738-10.052,57.017,57.017,0,0,0-3.562-9.753,66.134,66.134,0,0,0-31.917-33.127q-21.7-10.623-45.7-4.186Q808.865,93.857,795.376,113.922Zm26.544,15.54A35.6,35.6,0,0,1,863.158,118.4a36.033,36.033,0,0,1,17.1,14.439L814.318,150.53A36.068,36.068,0,0,1,821.92,129.462Zm142.664-11.493q3.218-2.494,11.961-4.341t25.485-1.847a69.563,69.563,0,0,1,39.93,12.376s15.27-30.595-11.41-36.021a147.484,147.484,0,0,0-29.44-2.956q-22.818,0-38.459,5.357t-23.738,14.131q-8.1,8.775-8.1,19.119t5.521,17.087a41.674,41.674,0,0,0,14.629,11.083,104.84,104.84,0,0,0,19.874,7.02q10.766,2.679,21.622,4.71t19.878,4.156a57.33,57.33,0,0,1,14.63,5.265q5.61,3.143,5.61,8.128,0,1.662-3.77,4.064t-11.78,4.248q-8.01,1.85-20.887,1.848a84.317,84.317,0,0,1-27.787-4.341,102.462,102.462,0,0,1-22.45-10.807s-15.561,30.573,13.249,37.5A157.537,157.537,0,0,0,996.143,218a126.74,126.74,0,0,0,29.537-3.048q12.6-3.048,20.88-8.405a38.272,38.272,0,0,0,12.42-12.284,28.089,28.089,0,0,0,4.15-14.686q0-11.819-7.46-19.4a55.979,55.979,0,0,0-18.95-12.284,149.667,149.667,0,0,0-24.48-7.573q-12.96-2.862-24.562-5.173a123.475,123.475,0,0,1-18.954-5.08q-7.362-2.771-7.361-7.389Q961.363,120.464,964.584,117.969Z"/>
  <path id="Color_Fill_5" data-name="Color Fill 5" class="cls-8" d="M1209.97,217.812c0.12-1.6.19-3.261,0.19-4.987v-66.5h-30.92a35.53,35.53,0,0,1-5.15,24.384q-7.365,11.27-19.23,14.778a37.177,37.177,0,0,1-23.56-.647q-11.685-4.156-18.31-15.979a35.215,35.215,0,0,1-4.23-22.536,34.365,34.365,0,0,1,5.34-14.039,34.906,34.906,0,0,1,17.11-14.039,35.37,35.37,0,0,1,22.27-1.293,95.4,95.4,0,0,1,12.88,6,25.474,25.474,0,0,0,13.98,3.049,29.917,29.917,0,0,0,29.82-29.926v-10.9h-30.55V105.5a43.144,43.144,0,0,0-16.01-15.055,40.761,40.761,0,0,0-19.51-5.264q-26.13,0-44.81,17.456t-21.25,43.687a66.171,66.171,0,0,0,10.86,41.563,65.258,65.258,0,0,0,33.67,26.415c1.6,0.494,3.19.988,4.79,1.478a0.756,0.756,0,0,1,.55.185,22.076,22.076,0,0,1,2.39.554,5.5,5.5,0,0,1,1.29.185,4.063,4.063,0,0,0,1.29.185c0.73,0.124,1.53.248,2.39,0.369a1.6,1.6,0,0,0,.74.185c1.22,0.124,2.39.248,3.49,0.369h7.36a2.925,2.925,0,0,0,.92-0.185h0.92a0.529,0.529,0,0,0,.37-0.184,9.262,9.262,0,0,0,1.84-.185,3.558,3.558,0,0,1,1.11-.185,0.521,0.521,0,0,1,.36-0.184,1.633,1.633,0,0,0,.74-0.185,0.744,0.744,0,0,0,.55-0.185h0.74a0.74,0.74,0,0,1,.55-0.185,354.971,354.971,0,0,0,1.1-.369q1.11-.368,2.4-0.924a44.151,44.151,0,0,0,17.48-12.376,39.642,39.642,0,0,0,3.68-5.172v15.332m328.1-64.838v-1.478q-2.58-26.227-21.25-43.78t-44.81-17.548a39.043,39.043,0,0,0-15.36,3.325,45.541,45.541,0,0,0-14.08,9.421c-0.13.124-.31,0.309-0.55,0.554a3.451,3.451,0,0,1-.92.924,8.216,8.216,0,0,1-.92,1.109,37.955,37.955,0,0,0-3.68,5.172V24.037h-30.55V156.669h30.91a9.621,9.621,0,0,1-.18-1.848,4.184,4.184,0,0,1-.18-1.293v-3.879a5.573,5.573,0,0,1,.18-1.293,9.649,9.649,0,0,1,.18-1.847,34.831,34.831,0,0,1,10.12-20.135,33.706,33.706,0,0,1,25.03-10.529,34.076,34.076,0,0,1,23.28,8.682,36.362,36.362,0,0,1,12.05,21.982,35.292,35.292,0,0,1,0,10.16,36.357,36.357,0,0,1-12.05,21.982,34.061,34.061,0,0,1-23.28,8.682h-2.76a0.752,0.752,0,0,0-.55-0.185,16.634,16.634,0,0,1-2.39-.185,0.782,0.782,0,0,0-.56-0.184h-0.55l-0.18-.185h-0.55a0.782,0.782,0,0,0-.56-0.185c-0.36-.121-0.8-0.245-1.28-0.369a1.409,1.409,0,0,1-.56-0.185,30.836,30.836,0,0,1-9.2-4.064,29.256,29.256,0,0,0-15.82-4.618h-1.29a29.9,29.9,0,0,0-29.81,29.925V218h30.55v-20.5a37.832,37.832,0,0,0,3.68,5.172,8.174,8.174,0,0,1,.92,1.108,8.236,8.236,0,0,1,.92,1.108,2.5,2.5,0,0,1,.55.37,42.745,42.745,0,0,0,14.08,9.513A39.978,39.978,0,0,0,1441.65,218q26.13,0,44.81-17.457t21.25-43.871V153.9a1.683,1.683,0,0,0,.19-0.739V152.42a30.883,30.883,0,0,0-.19-3.325v-1.108h0Zm47.3,70.01V24.037h-30.55V218h30.55Zm56.12,0V85.181h-30.55V218h30.55Zm-15.27-193.96a20.611,20.611,0,0,0-20.61,20.689,19.938,19.938,0,0,0,6.07,14.593,20.388,20.388,0,0,0,29.08,0,19.977,19.977,0,0,0,6.07-14.593,20.611,20.611,0,0,0-20.61-20.689h0Zm94.03,67.239a67.954,67.954,0,0,0-22.63,16.626V85.181h-30.55V218h30.55V166.459a48.379,48.379,0,0,1,14.53-35.467q14.535-14.59,35.89-15.147h0.37q8.46,0,12.88,4.8t5.98,12.93a96.4,96.4,0,0,1,1.56,18.1V218h30.55V151.681q0-5.355-.28-13.67a90.632,90.632,0,0,0-2.39-17.456,51.2,51.2,0,0,0-7.45-17.087,40.693,40.693,0,0,0-15.09-13.115q-9.765-5.169-25.76-5.172A66.565,66.565,0,0,0,1689.89,91.276Z"/>
  <path class="cls-8" d="M262.723,437.163s-11.357-4.73-13.171-17.279c0,0-3.934,45.25,7.526,69.116,0,0,10.9-46.786,28.223-55.677C285.3,433.323,278.372,437.727,262.723,437.163Z"/>
  <path id="Color_Fill_6" data-name="Color Fill 6" class="cls-8" d="M1190.19,203.74c13.92,0.724,20.44,4.464,20.23,17.5-0.69,42.987-19.6,64.946-30.27,80.521-39.22,43.572-94.23,56.183-135.55,60.319s-161.793-3.163-219.629-21.363-274.433-84.663-400.36-35.186c-49.872,19.6-100.267,48.277-130.524,87.966L250.16,467.637C287.178,321.256,458.433,240.1,654.285,277.883l222.143,50.266c5.419,0.521,106.24,18.294,170.682,7.54,60.95-11.712,78.46-19.933,112.96-59.063,20.94-30.61,18.83-64.447,18.83-64.447S1186.3,206.75,1190.19,203.74Z"/>
</svg>
